<svg version="1.1" id="Layer_1" xmlns="http://www.w3.org/2000/svg" xmlns:xlink="http://www.w3.org/1999/xlink" x="0px" y="0px"
	 width="100%" viewBox="0 0 1077 1139" enable-background="new 0 0 1077 1139" xml:space="preserve">
<path fill="#FFFFFF" opacity="1.000000" stroke="none" 
	d="
M584.000000,1140.000000 
	C389.355164,1140.000000 195.210342,1140.000000 1.032758,1140.000000 
	C1.032758,760.397888 1.032758,380.795746 1.032758,1.096812 
	C359.895050,1.096812 718.790100,1.096812 1077.842529,1.096812 
	C1077.842529,380.666626 1077.842529,760.333313 1077.842529,1140.000000 
	C913.461914,1140.000000 748.980957,1140.000000 584.000000,1140.000000 
M533.500000,835.247498 
	C391.025665,835.247498 248.551300,835.231262 106.076958,835.258301 
	C68.003159,835.265564 38.211761,864.994080 38.155563,903.033569 
	C38.090576,947.025757 38.089344,991.018066 38.155846,1035.010254 
	C38.213982,1073.469238 67.852562,1102.934692 106.379974,1102.935547 
	C395.495758,1102.941406 684.611511,1102.941895 973.727295,1102.935059 
	C1011.888977,1102.934204 1041.564087,1073.345215 1041.602417,1035.214966 
	C1041.646484,991.389404 1041.648071,947.563660 1041.560425,903.738220 
	C1041.551147,899.098999 1041.279785,894.366150 1040.347412,889.837952 
	C1033.557983,856.863647 1006.757568,835.249817 972.922791,835.248962 
	C826.781860,835.245422 680.640930,835.247559 533.500000,835.247498 
M466.500000,304.165100 
	C635.497925,304.165100 804.495911,304.169220 973.493835,304.161987 
	C1012.322388,304.160309 1041.433105,275.083893 1041.441895,236.316849 
	C1041.451782,192.483963 1041.450317,148.651093 1041.442383,104.818207 
	C1041.435303,66.033043 1012.308472,36.844368 973.573181,36.843468 
	C684.576172,36.836754 395.579132,36.837761 106.582092,36.842243 
	C67.393723,36.842850 38.159569,66.156914 38.145020,105.463921 
	C38.129036,148.630142 38.094761,191.796478 38.203056,234.962433 
	C38.215935,240.095688 38.575226,245.331146 39.622097,250.342026 
	C46.391129,282.742188 72.915382,304.158417 106.003685,304.161163 
	C225.835785,304.171112 345.667908,304.165161 466.500000,304.165100 
M860.500000,357.839508 
	C732.506958,357.839508 604.513916,357.837982 476.520874,357.840790 
	C449.022461,357.841400 421.519775,357.552826 394.026703,357.940765 
	C356.578033,358.469177 327.984741,387.759399 327.942413,425.186096 
	C327.885498,475.516632 327.880249,525.847473 328.001495,576.177795 
	C328.013794,581.294861 328.514801,586.534668 329.689087,591.504822 
	C337.038513,622.611328 363.220276,643.259216 395.202972,643.269592 
	C506.863678,643.305847 618.524658,643.429138 730.184937,643.209839 
	C772.857361,643.126038 800.928528,677.543884 799.356995,712.211792 
	C799.113770,717.577881 799.809998,723.118103 800.936462,728.393188 
	C807.766479,760.375732 834.335022,781.830444 867.116882,781.916443 
	C902.781433,782.010010 938.446533,782.006958 974.111084,781.919189 
	C1011.950439,781.826050 1041.584229,752.105835 1041.598877,714.244629 
	C1041.636353,618.083069 1041.625610,521.921570 1041.565063,425.760040 
	C1041.562378,421.452087 1041.292725,417.062683 1040.452148,412.849915 
	C1033.825195,379.634094 1007.404297,357.935333 973.493958,357.858887 
	C936.162781,357.774689 898.831360,357.839478 860.500000,357.839508 
M224.148575,716.422485 
	C224.152679,669.091736 224.168091,621.760986 224.157806,574.430237 
	C224.146805,523.766846 224.455933,473.100159 223.968491,422.441223 
	C223.631821,387.451080 194.803192,358.812439 159.820663,357.997772 
	C140.832947,357.555603 121.812569,357.490753 102.835609,358.120209 
	C95.338943,358.368866 87.566673,360.024750 80.529343,362.664581 
	C54.852310,372.296326 38.188931,397.298584 38.156605,425.252319 
	C38.099751,474.416290 38.140621,523.580444 38.140644,572.744507 
	C38.140663,619.908691 38.045494,667.073059 38.171207,714.236938 
	C38.270336,751.427185 67.090233,781.223389 103.651421,781.870789 
	C122.144440,782.198120 140.654175,782.217590 159.145844,781.848755 
	C194.328445,781.147034 222.934158,752.566406 224.148575,716.422485 
z"/>
<path fill="#CA494C" opacity="1.000000" stroke="none" 
	d="
M534.000000,835.247559 
	C680.640930,835.247559 826.781860,835.245422 972.922791,835.248962 
	C1006.757568,835.249817 1033.557983,856.863647 1040.347412,889.837952 
	C1041.279785,894.366150 1041.551147,899.098999 1041.560425,903.738220 
	C1041.648071,947.563660 1041.646484,991.389404 1041.602417,1035.214966 
	C1041.564087,1073.345215 1011.888977,1102.934204 973.727295,1102.935059 
	C684.611511,1102.941895 395.495758,1102.941406 106.379974,1102.935547 
	C67.852562,1102.934692 38.213982,1073.469238 38.155846,1035.010254 
	C38.089344,991.018066 38.090576,947.025757 38.155563,903.033569 
	C38.211761,864.994080 68.003159,835.265564 106.076958,835.258301 
	C248.551300,835.231262 391.025665,835.247498 534.000000,835.247559 
z"/>
<path fill="#CA494C" opacity="1.000000" stroke="none" 
	d="
M466.000000,304.165161 
	C345.667908,304.165161 225.835785,304.171112 106.003685,304.161163 
	C72.915382,304.158417 46.391129,282.742188 39.622097,250.342026 
	C38.575226,245.331146 38.215935,240.095688 38.203056,234.962433 
	C38.094761,191.796478 38.129036,148.630142 38.145020,105.463921 
	C38.159569,66.156914 67.393723,36.842850 106.582092,36.842243 
	C395.579132,36.837761 684.576172,36.836754 973.573181,36.843468 
	C1012.308472,36.844368 1041.435303,66.033043 1041.442383,104.818207 
	C1041.450317,148.651093 1041.451782,192.483963 1041.441895,236.316849 
	C1041.433105,275.083893 1012.322388,304.160309 973.493835,304.161987 
	C804.495911,304.169220 635.497925,304.165100 466.000000,304.165161 
z"/>
<path fill="#CA494C" opacity="1.000000" stroke="none" 
	d="
M861.000000,357.839447 
	C898.831360,357.839478 936.162781,357.774689 973.493958,357.858887 
	C1007.404297,357.935333 1033.825195,379.634094 1040.452148,412.849915 
	C1041.292725,417.062683 1041.562378,421.452087 1041.565063,425.760040 
	C1041.625610,521.921570 1041.636353,618.083069 1041.598877,714.244629 
	C1041.584229,752.105835 1011.950439,781.826050 974.111084,781.919189 
	C938.446533,782.006958 902.781433,782.010010 867.116882,781.916443 
	C834.335022,781.830444 807.766479,760.375732 800.936462,728.393188 
	C799.809998,723.118103 799.113770,717.577881 799.356995,712.211792 
	C800.928528,677.543884 772.857361,643.126038 730.184937,643.209839 
	C618.524658,643.429138 506.863678,643.305847 395.202972,643.269592 
	C363.220276,643.259216 337.038513,622.611328 329.689087,591.504822 
	C328.514801,586.534668 328.013794,581.294861 328.001495,576.177795 
	C327.880249,525.847473 327.885498,475.516632 327.942413,425.186096 
	C327.984741,387.759399 356.578033,358.469177 394.026703,357.940765 
	C421.519775,357.552826 449.022461,357.841400 476.520874,357.840790 
	C604.513916,357.837982 732.506958,357.839508 861.000000,357.839447 
z"/>
<path fill="#CA494C" opacity="1.000000" stroke="none" 
	d="
M224.119034,716.907227 
	C222.934158,752.566406 194.328445,781.147034 159.145844,781.848755 
	C140.654175,782.217590 122.144440,782.198120 103.651421,781.870789 
	C67.090233,781.223389 38.270336,751.427185 38.171207,714.236938 
	C38.045494,667.073059 38.140663,619.908691 38.140644,572.744507 
	C38.140621,523.580444 38.099751,474.416290 38.156605,425.252319 
	C38.188931,397.298584 54.852310,372.296326 80.529343,362.664581 
	C87.566673,360.024750 95.338943,358.368866 102.835609,358.120209 
	C121.812569,357.490753 140.832947,357.555603 159.820663,357.997772 
	C194.803192,358.812439 223.631821,387.451080 223.968491,422.441223 
	C224.455933,473.100159 224.146805,523.766846 224.157806,574.430237 
	C224.168091,621.760986 224.152679,669.091736 224.119034,716.907227 
z"/>
</svg>